<?xml version="1.0" encoding="UTF-8"?>
<svg id="uuid-abb6a716-592f-4746-aa1f-227ede22e191" data-name="Layer 2" xmlns="http://www.w3.org/2000/svg" viewBox="0 0 216 216">
  <defs>
    <style>
      .uuid-3a9522c3-211e-493f-9854-4882bfedcb21 {
        stroke: #231f20;
        stroke-miterlimit: 10;
        stroke-width: 3px;
      }

      .uuid-3a9522c3-211e-493f-9854-4882bfedcb21, .uuid-5ae70cfb-c1ad-4022-a92f-199422d0c4aa {
        fill: #fff;
      }

      .uuid-99fae5a3-939d-48e7-8c54-72acc50c9b10, .uuid-d7217868-3dbc-4ecd-98c7-ebe2a50a5b5a, .uuid-5240ab71-a53a-4f9d-a7d8-ca29c016b7c5, .uuid-5ae70cfb-c1ad-4022-a92f-199422d0c4aa {
        stroke-width: 0px;
      }

      .uuid-d7217868-3dbc-4ecd-98c7-ebe2a50a5b5a {
        fill: #575c5b;
      }

      .uuid-5240ab71-a53a-4f9d-a7d8-ca29c016b7c5 {
        fill: #424443;
      }
    </style>
  </defs>
  <path class="uuid-3a9522c3-211e-493f-9854-4882bfedcb21" d="m9.13,195.48V61.07c0-3.77,1.5-7.38,4.16-10.05L49.11,15.2c2.66-2.66,6.28-4.16,10.05-4.16h134.41c7.85,0,14.21,6.36,14.21,14.21v134.41c0,3.77-1.5,7.38-4.16,10.05l-35.82,35.82c-2.66,2.66-6.28,4.16-10.05,4.16H23.34c-7.85,0-14.21-6.36-14.21-14.21Z"/>
  <g id="uuid-02eafdb4-441d-468a-a4e6-d73356d1a00e" data-name="Black">
    <polygon class="uuid-5240ab71-a53a-4f9d-a7d8-ca29c016b7c5" points="153.45 191.36 189.45 155.36 189.45 29.36 153.45 65.36 153.45 191.36"/>
    <rect class="uuid-99fae5a3-939d-48e7-8c54-72acc50c9b10" x="27.45" y="65.36" width="126" height="126"/>
    <g>
      <path class="uuid-5ae70cfb-c1ad-4022-a92f-199422d0c4aa" d="m62.62,115.62h15.53v22.57h7.73v5.96h-23.26v-5.96h8.12v-16.58h-8.12v-5.99Zm7.59-7.3c0-.56.1-1.08.3-1.57.2-.48.49-.9.86-1.24s.81-.61,1.33-.8c.52-.19,1.09-.29,1.73-.29,1.3,0,2.33.37,3.1,1.09.76.73,1.15,1.67,1.15,2.81s-.38,2.08-1.15,2.81c-.76.73-1.8,1.09-3.1,1.09-.63,0-1.21-.1-1.73-.29-.52-.19-.96-.46-1.33-.8s-.66-.76-.86-1.24c-.2-.48-.3-1.01-.3-1.57Z"/>
      <path class="uuid-5ae70cfb-c1ad-4022-a92f-199422d0c4aa" d="m92.31,129.67c0-2.16.25-4.14.75-5.93s1.23-3.33,2.2-4.61c.97-1.28,2.14-2.28,3.52-2.98,1.38-.7,2.96-1.05,4.73-1.05,1.49,0,2.81.27,3.94.8,1.13.54,2.14,1.3,3.02,2.28v-14.53h7.36v40.5h-6.62l-.37-2.98c-.9,1.11-1.95,1.97-3.16,2.58s-2.62.92-4.22.92c-1.74,0-3.3-.37-4.68-1.09s-2.55-1.74-3.51-3.02c-.96-1.28-1.69-2.81-2.2-4.57-.51-1.77-.76-3.69-.76-5.76v-.55Zm7.33.55c0,1.2.1,2.31.3,3.34s.53,1.92.99,2.69,1.05,1.37,1.77,1.81c.72.44,1.6.66,2.64.66,1.27,0,2.32-.27,3.15-.82.83-.54,1.5-1.29,1.99-2.24v-11.55c-.49-.97-1.15-1.72-1.98-2.25-.83-.54-1.86-.8-3.11-.8-1.04,0-1.92.22-2.65.67s-1.32,1.06-1.78,1.85c-.46.78-.79,1.7-1,2.74-.21,1.05-.32,2.17-.32,3.36v.55Z"/>
    </g>
    <polygon class="uuid-d7217868-3dbc-4ecd-98c7-ebe2a50a5b5a" points="27.45 65.36 153.45 65.36 189.45 29.36 63.45 29.36 27.45 65.36"/>
  </g>
</svg>