<?xml version="1.0" encoding="utf-8"?>
<!-- Generator: Adobe Illustrator 27.0.0, SVG Export Plug-In . SVG Version: 6.00 Build 0)  -->
<svg version="1.1" id="Layer_1" xmlns="http://www.w3.org/2000/svg" xmlns:xlink="http://www.w3.org/1999/xlink" x="0px" y="0px"
	 viewBox="0 0 1125.5 321" style="enable-background:new 0 0 1125.5 321;" xml:space="preserve">
<style type="text/css">
	.st0{fill:#FFFFFF;}
	.st1{fill:#E01E5A;}
	.st2{fill:#36C5F0;}
	.st3{fill:#2EB67D;}
	.st4{fill:#ECB22E;}
</style>
<g>
	<g>
		<path class="st0" d="M331,235.4l12.6-29.3c13.8,10.2,31.7,15.6,49.7,15.6c13.2,0,21.6-5.1,21.6-12.9c-0.3-21.6-79.3-4.8-79.9-59
			c-0.3-27.5,24.2-48.8,59-48.8c20.7,0,41.3,5.1,56,16.8l-11.8,30c-13.5-8.7-30.2-14.7-46-14.7c-10.8,0-18,5.1-18,11.7
			c0.3,21.3,79.9,9.6,80.8,61.4c0,28.1-24,47.9-58.1,47.9C371.7,254,348.7,248,331,235.4"/>
		<path class="st0" d="M816.6,195.5c-6.3,11.1-18.2,18.6-31.8,18.6c-20.2,0-36.5-16.4-36.5-36.5s16.3-36.5,36.5-36.5
			c13.6,0,25.5,7.5,31.8,18.6l35-19.4c-13.1-23.5-38.1-39.3-66.8-39.3c-42.2,0-76.5,34.2-76.5,76.5s34.2,76.5,76.5,76.5
			c28.7,0,53.7-15.8,66.8-39.2L816.6,195.5z"/>
		<rect x="472.6" y="37.3" class="st0" width="43.7" height="213.7"/>
		<polygon class="st0" points="868.6,37.3 868.6,251 912.3,251 912.3,187 964.1,251 1020,251 954.1,175 1015.2,104 961.7,104 
			912.3,163 912.3,37.3 		"/>
		<path class="st0" d="M645.9,195.8c-6.3,10.5-19.5,18.3-34.1,18.3c-20.2,0-36.5-16.4-36.5-36.5s16.4-36.5,36.5-36.5
			c14.7,0,27.8,8.1,34.1,18.9V195.8L645.9,195.8z M645.9,104v17.4c-7.2-12-24.8-20.4-43.4-20.4c-38.3,0-68.6,33.8-68.6,76.4
			s30.3,76.6,68.6,76.6c18.6,0,36.2-8.4,43.4-20.4V251h43.7V104H645.9z"/>
	</g>
	<g>
		<path class="st1" d="M61,195.5c0,14.9-12.1,27-27,27s-27-12.1-27-27s12.1-27,27-27h27V195.5z"/>
		<path class="st1" d="M74.5,195.5c0-14.9,12.1-27,27-27s27,12.1,27,27V263c0,14.9-12.1,27-27,27s-27-12.1-27-27V195.5z"/>
	</g>
	<g>
		<path class="st2" d="M101.5,87.5c-14.9,0-27-12.1-27-27s12.1-27,27-27s27,12.1,27,27v27H101.5z"/>
		<path class="st2" d="M101.5,101c14.9,0,27,12.1,27,27s-12.1,27-27,27H34c-14.9,0-27-12.1-27-27s12.1-27,27-27H101.5z"/>
	</g>
	<g>
		<path class="st3" d="M209.5,128c0-14.9,12.1-27,27-27s27,12.1,27,27s-12.1,27-27,27h-27V128z"/>
		<path class="st3" d="M196,128c0,14.9-12.1,27-27,27s-27-12.1-27-27V60.5c0-14.9,12.1-27,27-27s27,12.1,27,27V128z"/>
	</g>
	<g>
		<path class="st4" d="M169,236c14.9,0,27,12.1,27,27s-12.1,27-27,27s-27-12.1-27-27v-27H169z"/>
		<path class="st4" d="M169,222.5c-14.9,0-27-12.1-27-27s12.1-27,27-27h67.5c14.9,0,27,12.1,27,27s-12.1,27-27,27H169z"/>
	</g>
</g>
</svg>
